<svg width="357" height="225" viewBox="0 0 357 225" fill="none" xmlns="http://www.w3.org/2000/svg">
<rect width="357" height="225" rx="10" fill="#E4ECF1"/>
<circle cx="18.5" cy="15.5" r="4.5" fill="#FF8282"/>
<circle cx="34.5" cy="15.5" r="4.5" fill="#FFC700"/>
<circle cx="50.5" cy="15.5" r="4.5" fill="#64CE6F"/>
<rect x="71" y="35" width="216" height="170" rx="10" fill="white"/>
<circle cx="179" cy="89" r="38" fill="#1D74F5"/>
<path d="M174.589 63.2253C173.861 63.1431 173.119 63.527 172.795 64.2467L171.202 67.784C170.943 68.3645 170.388 68.762 169.754 68.8148L165.889 69.1381C164.843 69.2244 164.106 70.2126 164.319 71.2417L165.111 75.0367C165.243 75.6604 165.026 76.3084 164.544 76.7234L161.607 79.2581C160.81 79.9442 160.797 81.1695 161.574 81.8771L164.451 84.4868C164.921 84.9138 165.119 85.5639 164.975 86.1828L164.099 89.9591C163.859 90.9834 164.567 91.9851 165.612 92.1003L169.473 92.5219C170.104 92.5915 170.646 92.9955 170.893 93.5808L172.401 97.1603C172.809 98.1294 173.973 98.5219 174.885 97.9989L178.253 96.0733C178.805 95.7567 179.484 95.7681 180.029 96.0967L183.346 98.102C184.243 98.6465 185.416 98.2838 185.848 97.3243L187.441 93.7869C187.7 93.2064 188.255 92.809 188.889 92.7562L192.754 92.4329C193.8 92.3465 194.535 91.3583 194.323 90.3292L193.532 86.5342C193.4 85.9105 193.616 85.2625 194.099 84.8475L197.036 82.3129C197.83 81.6268 197.849 80.3991 197.069 79.6938L194.192 77.0842C193.722 76.6572 193.524 76.007 193.668 75.3881L194.548 71.6118C194.788 70.5875 194.081 69.5858 193.035 69.4707L189.174 69.049C188.544 68.9795 187.997 68.5755 187.75 67.9902L186.246 64.4107C185.838 63.4415 184.675 63.0491 183.763 63.572L180.394 65.4976C179.843 65.8143 179.163 65.8028 178.619 65.4742L175.297 63.4689C175.073 63.3328 174.832 63.2527 174.589 63.2253L174.589 63.2253ZM191.316 97.3664L191.077 97.3899L188.537 103.04C187.82 104.633 185.871 105.238 184.377 104.333L179.073 101.124L173.694 104.202C172.178 105.071 170.25 104.416 169.571 102.806L167.327 97.4836V111.928C167.327 113.048 168.508 113.779 169.511 113.277L179.321 108.372L189.132 113.277C190.135 113.779 191.316 113.048 191.316 111.928V97.3664Z" fill="white"/>
<rect x="97" y="145" width="164" height="8" rx="4" fill="#E4ECF1"/>
<rect x="97" y="160" width="164" height="8" rx="4" fill="#E4ECF1"/>
<rect x="131" y="175" width="97" height="8" rx="4" fill="#E4ECF1"/>
</svg>
