<svg width="99" height="70" viewBox="0 0 99 70" fill="none" xmlns="http://www.w3.org/2000/svg">
<path d="M11.5903 58V48.0469H14.8442C15.9243 48.0469 16.7355 48.2702 17.2778 48.7168C17.8247 49.1634 18.0981 49.8242 18.0981 50.6992C18.0981 51.1641 17.966 51.5765 17.7017 51.9365C17.4373 52.292 17.0773 52.5677 16.6216 52.7637C17.1593 52.9141 17.5832 53.2012 17.8931 53.625C18.2075 54.0443 18.3647 54.5456 18.3647 55.1289C18.3647 56.0221 18.0754 56.724 17.4966 57.2344C16.9178 57.7448 16.0998 58 15.0425 58H11.5903ZM12.9028 53.3447V56.9268H15.0698C15.6805 56.9268 16.1613 56.7695 16.5122 56.4551C16.8677 56.1361 17.0454 55.6986 17.0454 55.1426C17.0454 53.944 16.3937 53.3447 15.0903 53.3447H12.9028ZM12.9028 52.292H14.8853C15.4595 52.292 15.9175 52.1484 16.2593 51.8613C16.6056 51.5742 16.7788 51.1846 16.7788 50.6924C16.7788 50.1455 16.6193 49.749 16.3003 49.5029C15.9813 49.2523 15.4959 49.127 14.8442 49.127H12.9028V52.292Z" fill="white"/>
<path d="M24.9612 58C24.8882 57.8542 24.829 57.5944 24.7834 57.2207C24.1955 57.8314 23.4937 58.1367 22.6779 58.1367C21.9488 58.1367 21.3495 57.9316 20.8801 57.5215C20.4153 57.1068 20.1828 56.5827 20.1828 55.9492C20.1828 55.179 20.4745 54.582 21.0578 54.1582C21.6457 53.7298 22.4706 53.5156 23.5324 53.5156H24.7629V52.9346C24.7629 52.4925 24.6307 52.1416 24.3664 51.8818C24.1021 51.6175 23.7125 51.4854 23.1975 51.4854C22.7463 51.4854 22.3681 51.5993 22.0627 51.8271C21.7574 52.055 21.6047 52.3307 21.6047 52.6543H20.3332C20.3332 52.2852 20.4631 51.9297 20.7229 51.5879C20.9872 51.2415 21.3427 50.9681 21.7893 50.7676C22.2404 50.5671 22.7349 50.4668 23.2727 50.4668C24.1249 50.4668 24.7925 50.681 25.2756 51.1094C25.7587 51.5332 26.0093 52.1188 26.0276 52.8662V56.2705C26.0276 56.9495 26.1141 57.4896 26.2873 57.8906V58H24.9612ZM22.8625 57.0361C23.259 57.0361 23.635 56.9336 23.9904 56.7285C24.3459 56.5234 24.6034 56.2568 24.7629 55.9287V54.4111H23.7717C22.2222 54.4111 21.4475 54.8646 21.4475 55.7715C21.4475 56.168 21.5796 56.4779 21.844 56.7012C22.1083 56.9245 22.4478 57.0361 22.8625 57.0361Z" fill="white"/>
<path d="M31.2568 57.1045C31.7079 57.1045 32.1022 56.9678 32.4394 56.6943C32.7766 56.4209 32.9635 56.0791 32.9999 55.6689H34.1962C34.1734 56.0928 34.0276 56.4961 33.7587 56.8789C33.4898 57.2617 33.1298 57.5671 32.6787 57.7949C32.232 58.0228 31.7581 58.1367 31.2568 58.1367C30.2496 58.1367 29.4475 57.8018 28.8505 57.1318C28.2581 56.4574 27.9619 55.5368 27.9619 54.3701V54.1582C27.9619 53.4382 28.094 52.7979 28.3583 52.2373C28.6227 51.6768 29.0009 51.2415 29.4931 50.9316C29.9898 50.6217 30.5755 50.4668 31.2499 50.4668C32.0794 50.4668 32.7675 50.7152 33.3144 51.2119C33.8658 51.7087 34.1598 52.3535 34.1962 53.1465H32.9999C32.9635 52.668 32.7812 52.276 32.4531 51.9707C32.1295 51.6608 31.7285 51.5059 31.2499 51.5059C30.6074 51.5059 30.1083 51.7383 29.7529 52.2031C29.402 52.6634 29.2265 53.3311 29.2265 54.2061V54.4453C29.2265 55.2975 29.402 55.9538 29.7529 56.4141C30.1038 56.8743 30.6051 57.1045 31.2568 57.1045Z" fill="white"/>
<path d="M37.9626 54.5752L37.1696 55.4023V58H35.9049V47.5H37.1696V53.8506L37.8463 53.0371L40.1501 50.6035H41.6881L38.8102 53.6934L42.0231 58H40.5397L37.9626 54.5752Z" fill="white"/>
<path d="M53.8282 49.127H50.629V58H49.3233V49.127H46.131V48.0469H53.8282V49.127Z" fill="white"/>
<path d="M54.368 54.2334C54.368 53.5088 54.5093 52.8571 54.7918 52.2783C55.0789 51.6995 55.4754 51.2529 55.9813 50.9385C56.4917 50.624 57.0727 50.4668 57.7244 50.4668C58.7316 50.4668 59.5451 50.8154 60.1649 51.5127C60.7892 52.21 61.1014 53.1374 61.1014 54.2949V54.3838C61.1014 55.1038 60.9624 55.751 60.6844 56.3252C60.411 56.8949 60.0168 57.3392 59.5018 57.6582C58.9914 57.9772 58.4035 58.1367 57.7381 58.1367C56.7355 58.1367 55.922 57.7881 55.2977 57.0908C54.6779 56.3936 54.368 55.4707 54.368 54.3223V54.2334ZM55.6395 54.3838C55.6395 55.2041 55.8286 55.8626 56.2069 56.3594C56.5897 56.8561 57.1001 57.1045 57.7381 57.1045C58.3807 57.1045 58.8911 56.8538 59.2694 56.3525C59.6476 55.8467 59.8367 55.1403 59.8367 54.2334C59.8367 53.4222 59.6431 52.766 59.2557 52.2646C58.8729 51.7588 58.3625 51.5059 57.7244 51.5059C57.1001 51.5059 56.5965 51.7542 56.2137 52.251C55.8309 52.7477 55.6395 53.4587 55.6395 54.3838Z" fill="white"/>
<path d="M73.5217 49.127H70.3225V58H69.0169V49.127H65.8245V48.0469H73.5217V49.127Z" fill="white"/>
<path d="M74.0615 54.2334C74.0615 53.5088 74.2028 52.8571 74.4853 52.2783C74.7724 51.6995 75.1689 51.2529 75.6748 50.9385C76.1852 50.624 76.7663 50.4668 77.4179 50.4668C78.4251 50.4668 79.2386 50.8154 79.8584 51.5127C80.4827 52.21 80.7949 53.1374 80.7949 54.2949V54.3838C80.7949 55.1038 80.6559 55.751 80.3779 56.3252C80.1045 56.8949 79.7103 57.3392 79.1953 57.6582C78.6849 57.9772 78.097 58.1367 77.4316 58.1367C76.429 58.1367 75.6155 57.7881 74.9912 57.0908C74.3714 56.3936 74.0615 55.4707 74.0615 54.3223V54.2334ZM75.333 54.3838C75.333 55.2041 75.5221 55.8626 75.9004 56.3594C76.2832 56.8561 76.7936 57.1045 77.4316 57.1045C78.0742 57.1045 78.5846 56.8538 78.9629 56.3525C79.3411 55.8467 79.5303 55.1403 79.5303 54.2334C79.5303 53.4222 79.3366 52.766 78.9492 52.2646C78.5664 51.7588 78.056 51.5059 77.4179 51.5059C76.7936 51.5059 76.29 51.7542 75.9072 52.251C75.5244 52.7477 75.333 53.4587 75.333 54.3838Z" fill="white"/>
<path d="M88.9089 54.3838C88.9089 55.5094 88.6514 56.4163 88.1364 57.1045C87.6215 57.7926 86.9242 58.1367 86.0446 58.1367C85.1468 58.1367 84.4405 57.8519 83.9255 57.2822V60.8438H82.6608V50.6035H83.8161L83.8776 51.4238C84.3926 50.7858 85.1081 50.4668 86.0241 50.4668C86.9128 50.4668 87.6146 50.8018 88.1296 51.4717C88.6491 52.1416 88.9089 53.0736 88.9089 54.2676V54.3838ZM87.6442 54.2402C87.6442 53.4062 87.4665 52.7477 87.111 52.2646C86.7556 51.7816 86.2679 51.54 85.6481 51.54C84.8825 51.54 84.3083 51.8796 83.9255 52.5586V56.0928C84.3037 56.7673 84.8825 57.1045 85.6618 57.1045C86.2679 57.1045 86.7487 56.8652 87.1042 56.3867C87.4642 55.9036 87.6442 55.1882 87.6442 54.2402Z" fill="white"/>
<path fill-rule="evenodd" clip-rule="evenodd" d="M95 1H4C2.34315 1 1 2.34315 1 4V66C1 67.6569 2.34314 69 4 69H95C96.6569 69 98 67.6569 98 66V4C98 2.34315 96.6569 1 95 1ZM4 0C1.79086 0 0 1.79086 0 4V66C0 68.2091 1.79086 70 4 70H95C97.2091 70 99 68.2091 99 66V4C99 1.79086 97.2091 0 95 0H4Z" fill="white"/>
<path fill-rule="evenodd" clip-rule="evenodd" d="M48.5 17.9108L41.7072 24.7036L40.293 23.2894L49.5023 14.0801L58.8277 23.4055L57.4135 24.8197L50.5 17.9062V34.9998H48.5V17.9108Z" fill="white"/>
</svg>
