<?xml version="1.0" encoding="utf-8"?>
<!-- Generator: Adobe Illustrator 23.0.3, SVG Export Plug-In . SVG Version: 6.00 Build 0)  -->
<svg version="1.1" id="Capa_1" xmlns="http://www.w3.org/2000/svg" xmlns:xlink="http://www.w3.org/1999/xlink" x="0px" y="0px"
	 viewBox="0 0 769.8 790.5" style="enable-background:new 0 0 769.8 790.5;" xml:space="preserve">
<style type="text/css">
	.st0{fill:#3A6EF1;}
	.st1{fill:#FFFFFF;}
</style>
<circle class="st0" cx="388.2" cy="395.2" r="379.6"/>
<g>
	<g>
		<g>
			<path class="st1" d="M297.6,205.1c-18.4,0-33.4,15.7-33.4,34.2s15,33.4,33.4,33.4c18.4,0,33.4-15,33.4-33.4
				S316,205.1,297.6,205.1z"/>
		</g>
	</g>
	<g>
		<g>
			<path class="st1" d="M386.7,362.6c12.3,0,22.3-10,22.3-22.3S399,318,386.7,318h-64.2l-16.1-33c-10.6-21.2-42.2-11.5-42.2,10.7
				v112c0,7.6,5.7,17.3,15.2,20.5l56.3,18.8l18.8,56.3c3.8,11.6,16.4,18,28.2,14.1c11.6-3.9,18-16.4,14.1-28.2l-22.3-66.8
				c-2.2-6.6-7.5-11.9-14.1-14.1l-51.6-17.2v-28.5H386.7z"/>
		</g>
	</g>
	<g>
		<g>
			<path class="st1" d="M585.4,388.1l-22.3-22.3c-4.3-4.4-11.4-4.3-15.8,0l-22.3,22.3c-4.4,4.4-4.4,11.4,0,15.8s11.4,4.4,15.8,0
				l3.3-3.3V474H442.4c-6.2,0-11.1,5-11.1,11.1v33.4H331c-6.2,0-11.1,5-11.1,11.1v33.4H219.6c-6.2,0-11.1,5-11.1,11.1
				c0,6.2,5,11.1,11.1,11.1H331c6.2,0,11.1-5,11.1-11.1v-33.4h100.2c6.2,0,11.1-5,11.1-11.1v-33.4h101.7c6.2,0,11.1-5,11.1-11.1
				v-84.5l3.3,3.3c4.4,4.4,11.4,4.4,15.8,0C589.8,399.5,589.8,392.5,585.4,388.1z"/>
		</g>
	</g>
	<g>
		<g>
			<path class="st1" d="M272.3,449.4c-5.3-1.8-9.9-4.8-14.1-8.4l-16,96.1c-2,11.9,6,23.6,18.4,25.6c12,2,23.5-6,25.6-18.3l14.3-85.7
				L272.3,449.4z"/>
		</g>
	</g>
	<g>
		<g>
			<path class="st1" d="M215,324.5c-8.7,8.7-8.7,22.8,0,31.5l26.9,26.9v-85.3L215,324.5z"/>
		</g>
	</g>
</g>
</svg>
