<?xml version="1.0" encoding="utf-8"?>
<!-- Generator: Adobe Illustrator 23.0.3, SVG Export Plug-In . SVG Version: 6.00 Build 0)  -->
<svg version="1.1" id="Capa_1" xmlns="http://www.w3.org/2000/svg" xmlns:xlink="http://www.w3.org/1999/xlink" x="0px" y="0px"
	 viewBox="0 0 769.8 775.5" style="enable-background:new 0 0 769.8 775.5;" xml:space="preserve">
<style type="text/css">
	.st0{fill:#3A6EF1;}
	.st1{fill:#FFFFFF;}
</style>
<circle class="st0" cx="388.2" cy="387.2" r="379.6"/>
<g>
	<path class="st1" d="M569.1,193.3H374.3c-22.5,0-40.8,18.3-40.8,40.8v96c10.3,5.1,21.4,10.7,31.8,15.8l15.9-31.8
		c9.6-19.2,33.1-27,52.3-17.4c19.3,9.6,27.1,33,17.4,52.3l-28.3,56.7c0.8,7.5,0.1,15.1-2,22.4h18.7l-49.3,135.6
		c-2.9,8,2.7,17.4,12.2,17.4c5.3,0,10.3-3.3,12.2-8.6L466.8,428h9.1L529,572.6c1.9,5.3,6.9,8.5,12.2,8.5c8.9,0,15.4-8.8,12.2-17.5
		L503.6,428h65.4c22.5,0,40.8-18.3,40.8-40.8V234.1C609.9,211.6,591.6,193.3,569.1,193.3z M541.2,372.4h-58.3c-7.2,0-13-5.8-13-13
		c0-7.2,5.8-13,13-13h58.3c7.2,0,13,5.8,13,13C554.2,366.5,548.4,372.4,541.2,372.4z M541.2,323.7h-58.3c-7.2,0-13-5.8-13-13
		c0-7.2,5.8-13,13-13h58.3c7.2,0,13,5.8,13,13C554.2,317.9,548.4,323.7,541.2,323.7z M541.2,275H402.1c-7.2,0-13-5.8-13-13
		s5.8-13,13-13h139.1c7.2,0,13,5.8,13,13S548.4,275,541.2,275z"/>
	<path class="st1" d="M395,422.4c2.3-6.9,2.3-14.1,0.3-20.6l32.2-64.5c3.2-6.4,0.6-14.2-5.8-17.4c-6.4-3.2-14.2-0.6-17.4,5.8
		l-27.5,55c-16.4-8.2-41.4-20.6-61.5-30.6c-18.7-9.3-32.1-17.7-54.9-17.7H249c17.7,0,33.6-8.2,43.9-20.9
		c7.9-9.7,12.6-22.1,12.6-35.6c0-31.3-25.3-56.6-56.6-56.6c-31.2,0-56.6,25.3-56.6,56.6c0,15,5.8,28.6,15.4,38.8
		c10.3,11,25,17.8,41.2,17.8c-21.8,0-43,8.8-58.3,24.2c-15.6,15.6-24.2,36.3-24.2,58.4v41.7c0,18,11.7,33.3,27.8,38.7v72.6
		c0,7.2,5.8,13,13,13h83.5c7.2,0,13-5.8,13-13v-146c12.3,6.2,28.5,14.2,41.6,20.8c9.2,4.6,19.9,5,29.5,1.1
		c9.5-3.9,16.9-11.7,20.2-21.4C395,422.5,395,422.5,395,422.4z"/>
</g>
</svg>
