<?xml version="1.0" encoding="utf-8"?>
<!-- Generator: Adobe Illustrator 23.0.3, SVG Export Plug-In . SVG Version: 6.00 Build 0)  -->
<svg version="1.1" id="Capa_1" xmlns="http://www.w3.org/2000/svg" xmlns:xlink="http://www.w3.org/1999/xlink" x="0px" y="0px"
	 viewBox="0 0 769.8 775.5" style="enable-background:new 0 0 769.8 775.5;" xml:space="preserve">
<style type="text/css">
	.st0{fill:#3A6EF1;}
	.st1{display:none;}
	.st2{display:inline;fill:#FFFFFF;}
	.st3{fill:#FFFFFF;}
</style>
<circle class="st0" cx="388.2" cy="387.2" r="379.6"/>
<g class="st1">
	<path class="st2" d="M569.1,193.3H374.3c-22.5,0-40.8,18.3-40.8,40.8v96c10.3,5.1,21.4,10.7,31.8,15.8l15.9-31.8
		c9.6-19.2,33.1-27,52.3-17.4c19.3,9.6,27.1,33,17.4,52.3l-28.3,56.7c0.8,7.5,0.1,15.1-2,22.4h18.7l-49.3,135.6
		c-2.9,8,2.7,17.4,12.2,17.4c5.3,0,10.3-3.3,12.2-8.6L466.8,428h9.1L529,572.6c1.9,5.3,6.9,8.5,12.2,8.5c8.9,0,15.4-8.8,12.2-17.5
		L503.6,428h65.4c22.5,0,40.8-18.3,40.8-40.8V234.1C609.9,211.6,591.6,193.3,569.1,193.3z M541.2,372.4h-58.3c-7.2,0-13-5.8-13-13
		c0-7.2,5.8-13,13-13h58.3c7.2,0,13,5.8,13,13C554.2,366.5,548.4,372.4,541.2,372.4z M541.2,323.7h-58.3c-7.2,0-13-5.8-13-13
		c0-7.2,5.8-13,13-13h58.3c7.2,0,13,5.8,13,13C554.2,317.9,548.4,323.7,541.2,323.7z M541.2,275H402.1c-7.2,0-13-5.8-13-13
		s5.8-13,13-13h139.1c7.2,0,13,5.8,13,13S548.4,275,541.2,275z"/>
	<path class="st2" d="M395,422.4c2.3-6.9,2.3-14.1,0.3-20.6l32.2-64.5c3.2-6.4,0.6-14.2-5.8-17.4c-6.4-3.2-14.2-0.6-17.4,5.8
		l-27.5,55c-16.4-8.2-41.4-20.6-61.5-30.6c-18.7-9.3-32.1-17.7-54.9-17.7H249c17.7,0,33.6-8.2,43.9-20.9
		c7.9-9.7,12.6-22.1,12.6-35.6c0-31.3-25.3-56.6-56.6-56.6c-31.2,0-56.6,25.3-56.6,56.6c0,15,5.8,28.6,15.4,38.8
		c10.3,11,25,17.8,41.2,17.8c-21.8,0-43,8.8-58.3,24.2c-15.6,15.6-24.2,36.3-24.2,58.4v41.7c0,18,11.7,33.3,27.8,38.7v72.6
		c0,7.2,5.8,13,13,13h83.5c7.2,0,13-5.8,13-13v-146c12.3,6.2,28.5,14.2,41.6,20.8c9.2,4.6,19.9,5,29.5,1.1
		c9.5-3.9,16.9-11.7,20.2-21.4C395,422.5,395,422.5,395,422.4z"/>
</g>
<g>
	<g>
		<g>
			<path class="st3" d="M423,535.6H194.3c0,25.1,20.4,45.4,45.4,45.4h201C429.8,569,423,553.2,423,535.6z"/>
		</g>
	</g>
	<g>
		<g>
			<path class="st3" d="M525.2,193.3H251.1c-18.8,0-34.1,15.3-34.1,34.1v285.5h217.3c6.3,0,11.4,5.1,11.4,11.4v11.4
				c0,25.1,20.4,45.4,45.4,45.4s45.4-20.4,45.4-45.4V285.7v-81v-10.2C532.9,193.7,529.1,193.3,525.2,193.3z M273.8,263h45.4
				c6.3,0,11.4,5.1,11.4,11.4s-5.1,11.4-11.4,11.4h-45.4c-6.3,0-11.4-5.1-11.4-11.4S267.5,263,273.8,263z M273.8,331.2h45.4
				c6.3,0,11.4,5.1,11.4,11.4c0,6.3-5.1,11.4-11.4,11.4h-45.4c-6.3,0-11.4-5.1-11.4-11.4C262.5,336.2,267.5,331.2,273.8,331.2z
				 M273.8,399.3H342c6.3,0,12.9,5.1,12.9,11.4c0,6.3-6.6,11.4-12.9,11.4h-68.2c-6.3,0-11.4-5.1-11.4-11.4S267.5,399.3,273.8,399.3z
				 M479.8,490.2h-206c-6.3,0-11.4-5.1-11.4-11.4c0-6.3,5.1-11.4,11.4-11.4h206c6.3,0,11.4,5.1,11.4,11.4
				C491.2,485.1,486.1,490.2,479.8,490.2z M468.5,358.9v74.5c0,4.2-2.3,8-6,10c-1.7,0.9-3.5,1.3-5.4,1.3c-2.2,0-4.4-0.6-6.3-1.9
				L423,424.3l-27.8,18.5c-3.5,2.3-8,2.5-11.7,0.6c-3.7-2-6-5.8-6-10v-74.5c-13.8-12.5-22.7-30.4-22.7-50.4
				c0-37.6,30.6-68.2,68.2-68.2s68.2,30.6,68.2,68.2C491.2,328.5,482.3,346.4,468.5,358.9z"/>
		</g>
	</g>
	<g>
		<g>
			<path class="st3" d="M423,376.6c-8,0-15.6-1.6-22.7-4.2v39.8l16.4-10.9c3.8-2.6,8.8-2.6,12.6,0l16.4,10.9v-39.8
				C438.6,375,431,376.6,423,376.6z"/>
		</g>
	</g>
	<g>
		<g>
			<path class="st3" d="M423,263c-25.1,0-45.4,20.4-45.4,45.4c0,25.1,20.4,45.4,45.4,45.4c25.1,0,45.4-20.4,45.4-45.4
				C468.5,283.4,448.1,263,423,263z"/>
		</g>
	</g>
	<g>
		<g>
			<path class="st3" d="M559.3,206.5v79.2h11.4c6.3,0,11.4-5.1,11.4-11.4v-22.7C582,233.2,573,216.9,559.3,206.5z"/>
		</g>
	</g>
</g>
</svg>
